<?xml version="1.0" standalone="no"?>
<!DOCTYPE svg PUBLIC "-//W3C//DTD SVG 20010904//EN"
 "http://www.w3.org/TR/2001/REC-SVG-20010904/DTD/svg10.dtd">
<svg version="1.0" xmlns="http://www.w3.org/2000/svg"
 width="512.000000pt" height="512.000000pt" viewBox="0 0 512.000000 512.000000"
 preserveAspectRatio="xMidYMid meet">

<g transform="translate(-50.000000,512.000000) scale(0.100000,-0.100000)"
fill="#ffffff" stroke="none">
<path d="M1654 5101 c-17 -11 -36 -34 -43 -52 -8 -23 -11 -400 -11 -1365 l0
-1334 -579 0 c-318 0 -592 -3 -610 -6 -38 -8 -77 -46 -84 -82 -3 -15 1 -43 9
-62 10 -23 371 -392 1087 -1108 849 -850 1079 -1075 1108 -1083 29 -9 43 -8
70 5 20 9 495 477 1110 1094 1161 1162 1108 1104 1074 1176 -30 64 -1 61 -662
64 l-603 3 0 1349 0 1350 -29 32 -29 33 -889 3 c-859 2 -889 1 -919 -17z
m1656 -1552 c6 -1493 0 -1377 67 -1406 26 -10 137 -13 540 -13 l508 0 -935
-936 -935 -936 -927 934 -927 933 522 5 c424 4 526 8 543 19 52 34 49 -43 52
1409 l2 1352 743 -2 742 -3 5 -1356z"/>
</g>
</svg>
