<?xml version="1.0" standalone="no"?>
<!DOCTYPE svg PUBLIC "-//W3C//DTD SVG 20010904//EN"
 "http://www.w3.org/TR/2001/REC-SVG-20010904/DTD/svg10.dtd">
<svg version="1.0" xmlns="http://www.w3.org/2000/svg"
 width="512.000000pt" height="512.000000pt" viewBox="0 0 512.000000 512.000000"
 preserveAspectRatio="xMidYMid meet">

<g transform="translate(-50.000000,512.000000) scale(0.100000,-0.100000)"
fill="#ffffff" stroke="none">
<path d="M2515 5105 c-17 -9 -515 -500 -1107 -1093 -1160 -1162 -1107 -1104
-1073 -1176 30 -64 1 -61 663 -64 l602 -3 0 -1349 0 -1350 29 -32 29 -33 886
-3 c984 -3 933 -6 962 63 12 29 14 238 14 1370 l0 1335 579 0 c318 0 592 3
610 6 38 8 77 46 84 82 3 15 -1 43 -9 62 -19 45 -2135 2166 -2181 2186 -40 17
-50 17 -88 -1z m1380 -2115 l-525 -5 -32 -33 -33 -32 -3 -1355 -2 -1355 -743
2 -742 3 -5 1356 c-5 1315 -6 1358 -24 1378 -10 11 -35 25 -55 31 -22 6 -233
10 -536 10 l-500 0 935 936 935 936 927 -934 928 -933 -525 -5z"/>
</g>
</svg>
